<svg xmlns="http://www.w3.org/2000/svg" xmlns:xlink="http://www.w3.org/1999/xlink" viewBox="0 0 510.61 89.15"><defs><style>.cls-1{fill:none;}.cls-2{isolation:isolate;}.cls-3{fill:#0068ff;}.cls-4{fill:#fff;}.cls-5{fill:#647eff;}.cls-14,.cls-22,.cls-5,.cls-8{opacity:0.5;}.cls-14,.cls-19,.cls-25,.cls-5,.cls-8{mix-blend-mode:screen;}.cls-6{fill:#d2dff7;}.cls-16,.cls-18,.cls-7{fill:red;}.cls-20,.cls-8{fill:#eb5c48;}.cls-9{fill:#f4d3d3;}.cls-10{fill:#c60000;}.cls-11{fill:url(#未命名的渐变_10);}.cls-12{fill:url(#未命名的渐变_64);}.cls-13{fill:#a00;}.cls-15{fill:url(#未命名的渐变_57);}.cls-16{stroke:#a00;}.cls-16,.cls-18{stroke-miterlimit:10;stroke-width:1.27px;}.cls-17{fill:url(#未命名的渐变_11);}.cls-18{stroke:#842424;}.cls-21{fill:#f7d2d2;}.cls-22{fill:#ffa1a1;}.cls-23{fill:url(#未命名的渐变_47);}.cls-24{fill:url(#未命名的渐变_59);}.cls-25{fill:url(#未命名的渐变_17);}.cls-26{clip-path:url(#clip-path);}.cls-27{fill:#ffdcdc;}</style><linearGradient id="未命名的渐变_10" x1="41.66" y1="83.27" x2="41.66" y2="60.21" gradientUnits="userSpaceOnUse"><stop offset="0" stop-color="red"/><stop offset="0.99" stop-color="#c60000"/></linearGradient><linearGradient id="未命名的渐变_64" x1="5.78" y1="76.57" x2="23.26" y2="61.53" xlink:href="#未命名的渐变_10"/><linearGradient id="未命名的渐变_57" x1="10.13" y1="45.48" x2="50.14" y2="45.48" gradientUnits="userSpaceOnUse"><stop offset="0" stop-color="#ff9797"/><stop offset="0.51" stop-color="#ffadad"/><stop offset="1" stop-color="#ffbdbd"/></linearGradient><linearGradient id="未命名的渐变_11" x1="7.08" y1="45.7" x2="53.18" y2="45.7" gradientUnits="userSpaceOnUse"><stop offset="0.01" stop-color="#c60000"/><stop offset="1" stop-color="red"/></linearGradient><linearGradient id="未命名的渐变_47" x1="41.06" y1="10.73" x2="16.7" y2="27.22" gradientUnits="userSpaceOnUse"><stop offset="0" stop-color="#ffc2c2"/><stop offset="0.04" stop-color="#ffa6a6"/><stop offset="0.12" stop-color="#ff7a7a"/><stop offset="0.2" stop-color="#ff5454"/><stop offset="0.28" stop-color="#ff3636"/><stop offset="0.37" stop-color="#ff1e1e"/><stop offset="0.46" stop-color="#ff0d0d"/><stop offset="0.56" stop-color="#ff0303"/><stop offset="0.68" stop-color="red"/><stop offset="1" stop-color="#f68a8a"/></linearGradient><linearGradient id="未命名的渐变_59" x1="38.23" y1="11.36" x2="30.25" y2="19.34" gradientTransform="translate(20.88 -19.72) rotate(45)" gradientUnits="userSpaceOnUse"><stop offset="0" stop-color="#ffc2c2"/><stop offset="0.02" stop-color="#ffc3c3" stop-opacity="0.98"/><stop offset="0.16" stop-color="#ffcaca" stop-opacity="0.83"/><stop offset="0.3" stop-color="#ffcfcf" stop-opacity="0.71"/><stop offset="0.45" stop-color="#ffd4d4" stop-opacity="0.62"/><stop offset="0.61" stop-color="#ffd7d7" stop-opacity="0.55"/><stop offset="0.78" stop-color="#ffd8d8" stop-opacity="0.51"/><stop offset="1" stop-color="#ffd9d9" stop-opacity="0.5"/></linearGradient><linearGradient id="未命名的渐变_17" x1="38.71" y1="7.53" x2="33.22" y2="21.38" gradientUnits="userSpaceOnUse"><stop offset="0" stop-color="#ffd9d9"/><stop offset="1" stop-color="#ff4545"/></linearGradient><clipPath id="clip-path"><path class="cls-1" d="M30.13,61.6a3.71,3.71,0,0,1-2.26-.76L11.6,48.44a3.73,3.73,0,0,1,0-5.93l16.27-12.4a3.71,3.71,0,0,1,2.26-.76,3.67,3.67,0,0,1,2.26.76l16.28,12.4a3.73,3.73,0,0,1,0,5.93L32.39,60.84A3.67,3.67,0,0,1,30.13,61.6Z"/></clipPath></defs><title>LOGO-GAMEKUDO</title><g class="cls-2"><g id="图层_1" data-name="图层 1"><path class="cls-3" d="M159,71.9c-2.93,0-4.6-1.6-4.6-4.39V60a.51.51,0,0,0-.51-.51H146a.51.51,0,0,0-.51.51v5.2a6.75,6.75,0,0,1-6.74,6.75h-5.7a6.75,6.75,0,0,1-6.74-6.75V48.82c0-3.12.89-6.82,2.88-12l6.16-16.06c.8-2.32,2.6-3.52,5.33-3.52h19A5.13,5.13,0,0,1,165,20.83l6.14,16c2,5.17,2.88,8.86,2.88,12V65.15a6.76,6.76,0,0,1-6.75,6.75ZM147.08,42.21a.52.52,0,0,0,.08.46.53.53,0,0,0,.41.2h4.73a.53.53,0,0,0,.41-.2.52.52,0,0,0,.08-.46l-2.36-7.61h-1Z"/><path class="cls-4" d="M159.74,19.1a3.29,3.29,0,0,1,3.54,2.33l6.15,16.07c1.92,5,2.76,8.49,2.76,11.32V65.15a4.9,4.9,0,0,1-4.9,4.9H159c-1.91,0-2.76-.78-2.76-2.54V60a2.35,2.35,0,0,0-2.35-2.35H146A2.36,2.36,0,0,0,143.67,60v5.2a4.9,4.9,0,0,1-4.9,4.9h-5.7a4.9,4.9,0,0,1-4.9-4.9V48.82c0-2.83.85-6.37,2.76-11.32l6.16-16.07c.57-1.63,1.7-2.33,3.61-2.33h19M147.57,44.72h4.73a2.36,2.36,0,0,0,2.25-3L152.17,34c-.36-.85-.78-1.2-1.35-1.2h-1.77c-.56,0-1,.35-1.34,1.2l-2.39,7.71a2.36,2.36,0,0,0,2.25,3m12.17-29.31h-19a6.94,6.94,0,0,0-7.07,4.75l-6.14,16c-2.08,5.38-3,9.28-3,12.64V65.15a8.59,8.59,0,0,0,8.58,8.59h5.7a8.6,8.6,0,0,0,8.59-8.59V61.28h5.15v6.23c0,3.78,2.53,6.23,6.45,6.23h8.33a8.6,8.6,0,0,0,8.59-8.59V48.82c0-3.36-.93-7.26-3-12.65l-6.13-16a6.94,6.94,0,0,0-7-4.75ZM149.38,41l.56-1.8.55,1.8Z"/><path class="cls-5" d="M140.65,67.77m18.55-4V57.89a3.29,3.29,0,0,0-3.29-3.29H144a3.29,3.29,0,0,0-3.29,3.29v5.87a3.29,3.29,0,0,1-3.29,3.29h-2.92a3.29,3.29,0,0,1-3.29-3.29V48.82c0-2.46.82-5.72,2.56-10.24l6.19-16.16a2.24,2.24,0,0,1,.12-.27h0a3.65,3.65,0,0,1,.65,0h19a1.77,1.77,0,0,1,.6.07,2.1,2.1,0,0,1,.1.25l6.19,16.15c1.75,4.53,2.56,7.79,2.56,10.25V63.76a3.29,3.29,0,0,1-3.29,3.29h-3.41A3.29,3.29,0,0,1,159.2,63.76Zm-10.15-34a4.34,4.34,0,0,0-4.11,3.05l-.06.13-3.25,10.51a3.3,3.3,0,0,0,3.15,4.27h10.31a3.29,3.29,0,0,0,3.15-4.27L155,32.94l-.06-.14a4.34,4.34,0,0,0-4.11-3ZM158.55,67"/><path class="cls-6" d="M140.65,57.59a5.86,5.86,0,0,1,.59,1.77,8.85,8.85,0,0,1,.17,1.77,8.75,8.75,0,0,1-.17,1.76,5.86,5.86,0,0,1-.59,1.77,6.15,6.15,0,0,1-.59-1.77,8.73,8.73,0,0,1-.16-1.76,8.85,8.85,0,0,1,.17-1.77A6.12,6.12,0,0,1,140.65,57.59Z"/><path class="cls-6" d="M140.7,22.1c1.64-.1,3.27-.17,4.91-.23s3.28-.15,4.91-.19l4.92-.13,2.45-.05,1.23,0a4.87,4.87,0,0,1,1.45.09l.41.61H161v0l0,.08.14.34.27.67.53,1.35,1.07,2.69,2.1,5.41,2.07,5.42a49.87,49.87,0,0,1,1.83,5.58,27.94,27.94,0,0,1,.59,2.92,16.74,16.74,0,0,1,.12,3l-.14,5.8q-.15,5.8-.47,11.6-.3-5.79-.46-11.6l-.14-5.8a17,17,0,0,0-.21-2.8,24.21,24.21,0,0,0-.62-2.75c-1-3.64-2.62-7.2-3.95-10.84l-2.06-5.43-1-2.72-.5-1.37-.26-.68-.12-.34-.09-.24c0-.1-.06-.21-.08-.31l.42.6a7,7,0,0,0-1-.05l-1.23,0-2.45-.05-4.92-.13c-1.63,0-3.27-.12-4.91-.19S142.34,22.19,140.7,22.1Z"/><path class="cls-6" d="M144.94,32.81l0,.13h0c-.25,1.28-.54,2.53-.83,3.79s-.61,2.51-.95,3.76c-.63,2.4-.69,2.57-1.36,4.77a.62.62,0,0,0,.08.51l.59.84a.86.86,0,0,0,.69.35c1,0,.57,0,2,0,1.61,0,3.21.06,4.82.1,3.2.12,6.41.28,9.62.63-3.21.34-6.42.5-9.62.62-1.61,0-3.21.09-4.82.1s-3.2,0-4.81,0l-.41-.39-.29-.56q1.15-3.69,2.46-7.34c.43-1.21.89-2.42,1.34-3.63s.94-2.41,1.46-3.6h0Z"/><path class="cls-3" d="M217.8,71.9c-2.83,0-4.39-1.56-4.39-4.39V49.87l-.71,1.31a5.55,5.55,0,0,1-5.37,3.23H204.5a5.56,5.56,0,0,1-5.39-3.25l-.7-1.29V67.51A4.4,4.4,0,0,1,194,71.9H183.48a4.39,4.39,0,0,1-4.39-4.39V21.64a4.39,4.39,0,0,1,4.39-4.39h11.39a5.12,5.12,0,0,1,4.87,3.09l6.35,11.49,6.27-11.49a5.14,5.14,0,0,1,4.88-3.09H228.7a4.4,4.4,0,0,1,4.39,4.39V67.51a4.4,4.4,0,0,1-4.39,4.39Z"/><path class="cls-4" d="M228.7,19.1a2.55,2.55,0,0,1,2.55,2.54V67.51a2.55,2.55,0,0,1-2.55,2.54H217.8c-1.84,0-2.55-.78-2.55-2.54V45.75a.79.79,0,0,0-.81-.8.78.78,0,0,0-.69.42l-2.67,4.94a3.71,3.71,0,0,1-3.75,2.26H204.5a3.72,3.72,0,0,1-3.76-2.26l-2.67-4.94a.76.76,0,0,0-.69-.42.79.79,0,0,0-.81.8V67.51A2.55,2.55,0,0,1,194,70.05H183.48a2.55,2.55,0,0,1-2.55-2.54V21.64a2.55,2.55,0,0,1,2.55-2.54h11.39a3.34,3.34,0,0,1,3.26,2.12l6.37,11.54c.49.84.7,1.2,1.27,1.2h.64c.56,0,.78-.36,1.27-1.2L214,21.22a3.34,3.34,0,0,1,3.25-2.12H228.7m0-3.69H217.23a7,7,0,0,0-6.49,4L206.08,28l-4.73-8.56a6.94,6.94,0,0,0-6.48-4H183.48a6.25,6.25,0,0,0-6.24,6.23V67.51a6.25,6.25,0,0,0,6.24,6.23H194a6.25,6.25,0,0,0,6.24-6.23V55.16a7.78,7.78,0,0,0,4.24,1.1h2.83a7.81,7.81,0,0,0,4.24-1.1V67.51c0,3.84,2.39,6.23,6.23,6.23h10.9a6.24,6.24,0,0,0,6.23-6.23V21.64a6.24,6.24,0,0,0-6.23-6.23Z"/><path class="cls-5" d="M218.25,67.05V45.5a3.73,3.73,0,0,0-2.82-3.62h0a3.74,3.74,0,0,0-4.2,1.84l-2.79,5.16c-.35.67-.38.69-1.11.69H204.5c-.73,0-.76,0-1.1-.65l-2.81-5.2a3.73,3.73,0,0,0-4.2-1.84h0a3.73,3.73,0,0,0-2.82,3.62V67.05h-9.64V22.1h10.94a1.14,1.14,0,0,1,.28,0,4.07,4.07,0,0,1,.34.54l6.38,11.54c.62,1.07,1.61,2.76,3.9,2.76h.64c2.29,0,3.27-1.69,3.86-2.69l6.34-11.61a2.35,2.35,0,0,1,.38-.56h11.26V67.05Z"/><path class="cls-6" d="M183.93,22.1c1.87-.23,3.74-.37,5.61-.48l2.8-.14,1.41-.05h1.05a4.81,4.81,0,0,1,.5,0l.55.72a.83.83,0,0,0-.08-.36l0,0,0,0h0l0,0,.05.07.11.15.18.3.31.53.59,1.07c.4.71.81,1.41,1.19,2.13.78,1.42,1.55,2.85,2.29,4.31s1.45,2.94,2.17,4.33a4.57,4.57,0,0,0,1.49,1.68,4.87,4.87,0,0,0,2.27.63,4.57,4.57,0,0,1-2.5-.17,4.85,4.85,0,0,1-2-1.66c-.52-.69-.91-1.38-1.35-2.08s-.85-1.38-1.26-2.09c-.83-1.39-1.63-2.81-2.43-4.23-.4-.71-.78-1.43-1.17-2.14l-.58-1.08-.29-.53-.12-.23-.07-.1,0,0,0,0,0,0,0,0,0,0a.88.88,0,0,1-.08-.37l.55.72-2.66-.09-2.8-.14C187.67,22.47,185.8,22.32,183.93,22.1Z"/><path class="cls-6" d="M193.57,42.59c.31,2,.47,4.08.58,6.12s.15,4.07.17,6.11,0,4.08-.16,6.12-.28,4.08-.59,6.11c-.31-2-.47-4.07-.58-6.11s-.16-4.08-.17-6.12.05-4.07.17-6.11S193.26,44.63,193.57,42.59Z"/><path class="cls-6" d="M212.62,41.17a18.38,18.38,0,0,1-1.05,3.14,31.82,31.82,0,0,1-1.4,2.95c-.26.47-.53,1-.81,1.41l-.43.7a2.53,2.53,0,0,1-.35.46,1.14,1.14,0,0,1-.76.31,5.51,5.51,0,0,1-.88-.08l-.81-.12a13.23,13.23,0,0,1-1.63-.37c.54-.16,1.08-.26,1.63-.37l1.56-.22c.1,0,0,0,0,0a1.22,1.22,0,0,1,.1-.23c.1-.24.22-.49.33-.73.24-.5.49-1,.75-1.46a32,32,0,0,1,1.7-2.79A16.92,16.92,0,0,1,212.62,41.17Z"/><path class="cls-6" d="M216.61,22.66a2.7,2.7,0,0,1,.35-.59h0c.91-.08,1.87-.11,2.8-.16l2.82-.13c1.87-.09,3.75-.14,5.63-.2l.51,0,0,.55c.1,3.74.16,7.49.19,11.23s0,7.5,0,11.24c-.07,7.5-.26,15-.72,22.48-.46-7.49-.65-15-.72-22.48,0-3.74,0-7.49,0-11.24s.09-7.49.19-11.23l.53.52c-1.88-.06-3.76-.11-5.63-.2L217,22.14h0A2.68,2.68,0,0,0,216.61,22.66Z"/><path class="cls-3" d="M242.53,71.9c-2.79,0-4.39-1.6-4.39-4.39V21.64c0-2.79,1.6-4.39,4.39-4.39h32.84c2.79,0,4.39,1.6,4.39,4.39v8.28c0,2.79-1.6,4.39-4.39,4.39H257.68v1.77h12c2.79,0,4.39,1.6,4.39,4.39V48c0,2.79-1.6,4.39-4.39,4.39h-12v2.4h17.69c2.79,0,4.39,1.6,4.39,4.39v8.29c0,2.79-1.6,4.39-4.39,4.39Z"/><path class="cls-4" d="M275.37,19.1c1.77,0,2.55.77,2.55,2.54v8.28c0,1.77-.78,2.55-2.55,2.55H255.84v5.45h13.8c1.77,0,2.55.78,2.55,2.55V48c0,1.77-.78,2.55-2.55,2.55h-13.8v6.09h19.53c1.77,0,2.55.78,2.55,2.54v8.29c0,1.76-.78,2.54-2.55,2.54H242.53c-1.77,0-2.55-.78-2.55-2.54V21.64c0-1.77.78-2.54,2.55-2.54h32.84m0-3.69H242.53a5.84,5.84,0,0,0-6.23,6.23V67.51a5.84,5.84,0,0,0,6.23,6.23h32.84a5.84,5.84,0,0,0,6.23-6.23V59.22A5.84,5.84,0,0,0,275.37,53h-1.66a6.07,6.07,0,0,0,2.16-5V40.47a6.34,6.34,0,0,0-1.48-4.31h1a5.84,5.84,0,0,0,6.23-6.24V21.64a5.84,5.84,0,0,0-6.23-6.23Z"/><path class="cls-5" d="M243,67.05V22.1h31.94v7.37H252.84V40.92h16.35v6.67H252.84V59.68h22.08v7.37Zm32.66-7.36,0-30.24"/><path class="cls-6" d="M252.84,59.68a110.55,110.55,0,0,1,11-.71c1.84,0,3.68-.06,5.52,0s3.68.07,5.52.15l.61,0,0,.56c-.11,2.46-.27,4.91-.58,7.37-.31-2.46-.48-4.91-.59-7.37l.59.58c-1.84.08-3.68.14-5.52.15s-3.68,0-5.52,0C260.2,60.3,256.52,60.12,252.84,59.68Z"/><path class="cls-6" d="M252.84,40.92a66.2,66.2,0,0,1,8.17-.69c1.36,0,2.73-.06,4.09,0s2.72,0,4.09.1l.67,0,0,.61a62.66,62.66,0,0,1-.63,6.67,60.19,60.19,0,0,1-.64-6.67l.64.64c-1.37.06-2.73.1-4.09.1s-2.73,0-4.09,0A66.2,66.2,0,0,1,252.84,40.92Z"/><path class="cls-6" d="M243,22.1c5.33-.49,10.65-.66,16-.73,2.66,0,5.32,0,8,0s5.33.11,8,.22l.51,0,0,.47c-.12,2.45-.26,4.91-.49,7.37-.24-2.46-.38-4.92-.49-7.37l.49.49q-4,.16-8,.22c-2.66,0-5.32,0-8,0C253.63,22.75,248.31,22.58,243,22.1Z"/><path class="cls-3" d="M94.75,71.9c-13,0-19.25-5.33-19.25-16.28V33.53c0-11,6.29-16.28,19.25-16.28h17.69a4.4,4.4,0,0,1,4.39,4.39v8.57a4.4,4.4,0,0,1-4.39,4.39H97.72c-2.47,0-2.47.78-2.47,1.69V53.21c0,1.56.4,1.62,1.41,1.62h3a9,9,0,0,1-1.82-5.41V45.54a4.3,4.3,0,0,1,4.3-4.29H117a4.4,4.4,0,0,1,4.39,4.39V67.51A4.4,4.4,0,0,1,117,71.9Z"/><path class="cls-4" d="M112.44,19.1A2.55,2.55,0,0,1,115,21.64v8.57a2.55,2.55,0,0,1-2.55,2.55H97.72c-3,0-4.32,1.13-4.32,3.53V53.21c0,2.41,1.06,3.47,3.26,3.47h6.86l-2.24-2.83a7.12,7.12,0,0,1-1.54-4.43V45.54a2.45,2.45,0,0,1,2.45-2.45H117a2.55,2.55,0,0,1,2.55,2.55V67.51A2.55,2.55,0,0,1,117,70.05H94.75c-11.89,0-17.41-4.6-17.41-14.43V33.53c0-9.83,5.52-14.43,17.41-14.43h17.69m0-3.69H94.75c-17.44,0-21.1,9.86-21.1,18.12V55.62c0,8.26,3.66,18.12,21.1,18.12H117a6.25,6.25,0,0,0,6.24-6.23V45.64A6.25,6.25,0,0,0,117,39.4H102.19a6.13,6.13,0,0,0-5.1,2.73V36.47a5.18,5.18,0,0,1,.63,0h14.72a6.24,6.24,0,0,0,6.23-6.23V21.64a6.24,6.24,0,0,0-6.23-6.23Z"/><path class="cls-5" d="M94.75,67.29c-12.88,0-14.65-5.61-14.65-11.67V33.53c0-6.06,1.77-11.67,14.65-11.67h17.48V30H97.72c-6.39,0-7.08,4.41-7.08,6.3V53.21c0,3.9,2.25,6.23,6,6.23h12.58l-5.8-7.31a4.37,4.37,0,0,1-.94-2.71V45.85h14.33V67.29Z"/><path class="cls-6" d="M106.52,46.09c1.68-.21,3.36-.34,5-.44s3.35-.19,5-.23h.64l0,.68c.06,1.75.07,3.49.09,5.24s0,3.49-.07,5.24-.12,3.5-.23,5.24-.24,3.5-.45,5.24c-.21-1.74-.36-3.49-.46-5.24s-.18-3.49-.22-5.24,0-3.49-.07-5.24,0-3.49.08-5.24l.67.66c-1.68,0-3.36-.12-5-.22S108.2,46.29,106.52,46.09Z"/><path class="cls-6" d="M86.9,23.06a18.77,18.77,0,0,1,6.19-1.44c2.13-.16,4.2-.18,6.31-.24s4.19-.05,6.29,0,4.2.07,6.3.16l.58,0,0,.54c-.11,2.55-.27,5.1-.56,7.66-.29-2.56-.45-5.11-.56-7.66l.56.56c-2.1.09-4.2.15-6.3.16s-4.19,0-6.29,0l-3.15-.08c-1,0-2.1-.09-3.13-.11A28.29,28.29,0,0,0,86.9,23.06Z"/><path class="cls-6" d="M90.41,43.88l.16,4.88.07,2.45,0,1.22a3.46,3.46,0,0,0,.13,1.2,8.08,8.08,0,0,0,1.9,3.91,9,9,0,0,0,4,2.13,5.08,5.08,0,0,1-5-1.08,5.56,5.56,0,0,1-1.62-4.93,5.8,5.8,0,0,0,.09-1.23l0-1.22.07-2.45Z"/><path class="cls-7" d="M483.19,71c-15.39,0-22.26-4.69-22.26-15.23V33.41c0-10.58,6.87-15.29,22.26-15.29s22.19,4.71,22.19,15.29V55.8C505.38,66.34,498.54,71,483.19,71Zm0-36.43c-3.67,0-3.67.74-3.67,1.18V53.44c0,.52,0,1.24,3.67,1.24s3.67-.69,3.67-1.24V35.78C486.86,35.31,486.86,34.6,483.19,34.6Z"/><path class="cls-4" d="M483.19,20c16.41,0,20.35,5.45,20.35,13.45V55.8c0,8-3.94,13.39-20.35,13.39s-20.41-5.38-20.41-13.39V33.41c0-8,4-13.45,20.41-13.45m0,36.56c4.79,0,5.51-1.31,5.51-3.08V35.78c0-1.71-.72-3-5.51-3s-5.51,1.31-5.51,3V53.44c0,1.77.78,3.08,5.51,3.08m0-40.25c-10.35,0-24.1,1.78-24.1,17.14V55.8c0,15.31,13.75,17.08,24.1,17.08s24-1.77,24-17.08V33.41c0-15.36-13.72-17.14-24-17.14Zm-1.83,20.28a15.28,15.28,0,0,1,3.66,0V52.73a15.28,15.28,0,0,1-3.66,0V36.55Z"/><path class="cls-8" d="M483.19,66.19c-16.07,0-17.41-5.13-17.41-10.39V33.41c0-5.29,1.34-10.45,17.41-10.45s17.35,5.16,17.35,10.45V55.8C500.54,61.06,499.2,66.19,483.19,66.19Zm0-36.43c-5.65,0-8.51,2-8.51,6V53.44c0,4,2.86,6.08,8.51,6.08,2.11,0,8.51,0,8.51-6.08V35.78C491.7,29.76,485.3,29.76,483.19,29.76Z"/><path class="cls-9" d="M469.54,25.44a12.84,12.84,0,0,1,3.39-1.6A27.22,27.22,0,0,1,476.6,23a48.29,48.29,0,0,1,7.5-.57,40.78,40.78,0,0,1,7.54.54,15.39,15.39,0,0,1,1.88.41l.93.26c.31.1.61.23.92.35A9.84,9.84,0,0,1,498.76,26a7.56,7.56,0,0,1,2.07,3.5,14.06,14.06,0,0,1,.42,3.89c0,2.49-.06,5-.13,7.46q-.14,7.45-.58,14.92-.44-7.45-.58-14.92c-.07-2.48-.09-5-.13-7.46a13.25,13.25,0,0,0-.41-3.49,6.15,6.15,0,0,0-1.7-2.83,8.67,8.67,0,0,0-2.9-1.8L494,25l-.86-.25a17.11,17.11,0,0,0-1.75-.41,44.29,44.29,0,0,0-7.3-.76,56.94,56.94,0,0,0-7.39.13A19.32,19.32,0,0,0,469.54,25.44Z"/><path class="cls-9" d="M474.68,35.78c.29,3.46.48,6.91.58,10.37.07,1.73.08,3.46.12,5.19,0,.84,0,1.77.05,2.54A4.84,4.84,0,0,0,476,56a5.48,5.48,0,0,0,3.71,2.44,19.84,19.84,0,0,0,5,.43,9.27,9.27,0,0,0,4.71-1.22A4.5,4.5,0,0,0,491,55.89a7,7,0,0,0,.67-2.45,5.51,5.51,0,0,1-1.85,4.83,9.39,9.39,0,0,1-5.07,1.8,18.92,18.92,0,0,1-5.35-.22,8.45,8.45,0,0,1-2.63-1,5.73,5.73,0,0,1-2.07-2.08A6.42,6.42,0,0,1,474,54c0-.95,0-1.75,0-2.63,0-1.73,0-3.46.12-5.19C474.19,42.69,474.39,39.24,474.68,35.78Z"/><path class="cls-7" d="M410.29,70.8a3.76,3.76,0,0,1-3.73-3.73v-45a3.76,3.76,0,0,1,3.73-3.73h20.06a31.34,31.34,0,0,1,12.5,2.38,21.1,21.1,0,0,1,9,7.18,20.44,20.44,0,0,1,3.61,11.38c.1,2.66.14,4.41.14,5.35s0,2.58-.14,5.16c-.3,7-2.73,12.26-7.21,15.79S438,70.8,430.7,70.8Zm17.6-35.18a.23.23,0,0,0-.23.23V53.11a.42.42,0,0,0,.42.42h2.27a3.66,3.66,0,0,0,2.66-.92,4.29,4.29,0,0,0,1.07-3c.09-1.34.14-3.06.14-5.13s-.05-3.81-.14-5A3.88,3.88,0,0,0,433,36.57a4.38,4.38,0,0,0-2.95-1Z"/><path class="cls-4" d="M430.35,20.2a29.52,29.52,0,0,1,11.77,2.22A19.27,19.27,0,0,1,450.34,29a18.65,18.65,0,0,1,3.27,10.38c.09,2.6.14,4.37.14,5.29s-.05,2.58-.14,5.09q-.42,9.62-6.51,14.42T430.7,69H410.29a1.88,1.88,0,0,1-1.88-1.88v-45a1.88,1.88,0,0,1,1.88-1.88h20.06m-2.27,35.17h2.27a5.47,5.47,0,0,0,3.93-1.43,6,6,0,0,0,1.64-4.21c.09-1.35.14-3.09.14-5.22s-.05-3.91-.14-5.16a5.57,5.57,0,0,0-1.78-4.18A6.15,6.15,0,0,0,430,33.78h-2.11a2.07,2.07,0,0,0-2.07,2.07V53.11a2.26,2.26,0,0,0,2.26,2.26m2.27-38.86H410.29a5.6,5.6,0,0,0-5.57,5.57v45a5.58,5.58,0,0,0,5.57,5.57H430.7c7.68,0,14-1.88,18.68-5.6,4.93-3.88,7.59-9.65,7.91-17.15.1-2.62.15-4.33.15-5.25s-.05-2.73-.14-5.42a22.34,22.34,0,0,0-4-12.38,22.9,22.9,0,0,0-9.76-7.8,33.17,33.17,0,0,0-13.23-2.53Zm-.84,21H430a2.51,2.51,0,0,1,1.76.52,2.46,2.46,0,0,1,.48,1.56v.08c.09,1.17.13,2.81.13,4.89s0,3.7-.13,5v.06a2.79,2.79,0,0,1-.5,1.73,1.75,1.75,0,0,1-1.39.42h-.84V37.46Z"/><path class="cls-8" d="M411.17,66.19V23h19.18A26.76,26.76,0,0,1,441,25a16.36,16.36,0,0,1,7.06,5.61,15.79,15.79,0,0,1,2.77,8.88c.09,2.57.14,4.32.14,5.19s-.05,2.51-.14,5c-.24,5.59-2,9.64-5.46,12.35s-8.49,4.21-14.69,4.21ZM423.06,56a2.14,2.14,0,0,0,2.14,2.14h5.15a8.15,8.15,0,0,0,5.84-2.2,8.66,8.66,0,0,0,2.49-6.07c.09-1.36.14-3.18.14-5.36s-.05-4-.14-5.36a8.22,8.22,0,0,0-2.74-6.08A8.87,8.87,0,0,0,430,31h-4.95a2,2,0,0,0-2,2Z"/><path class="cls-9" d="M421.3,59.49,423.05,42V58.13h7.29C428.11,59.31,421.3,59.49,421.3,59.49Z"/><path class="cls-9" d="M430.37,23A26.76,26.76,0,0,1,441,25a16.45,16.45,0,0,1,7.07,5.61,15.86,15.86,0,0,1,2.76,8.88S448.75,25,430.37,23Z"/><path class="cls-7" d="M329.14,70.8a4.78,4.78,0,0,1-3-.9,4.89,4.89,0,0,1-1.52-1.73l-5-8.94v7.84a3.74,3.74,0,0,1-3.72,3.73h-13.3a3.76,3.76,0,0,1-3.73-3.73v-45a3.76,3.76,0,0,1,3.73-3.73h13.3a3.74,3.74,0,0,1,3.72,3.73v6.69l4.42-7.94a4.79,4.79,0,0,1,4.4-2.48h15.39a3.4,3.4,0,0,1,3.38,3.38,3.26,3.26,0,0,1-.48,1.72l-12,20.08L347.9,65.65a3.12,3.12,0,0,1,.5,1.77,3.32,3.32,0,0,1-1,2.39,3.35,3.35,0,0,1-2.38,1Z"/><path class="cls-4" d="M343.84,20.2a1.54,1.54,0,0,1,1.53,1.53,1.51,1.51,0,0,1-.2.76l-12.54,21,13.72,23.13a1.23,1.23,0,0,1,.21.76,1.47,1.47,0,0,1-.45,1.08A1.51,1.51,0,0,1,345,69H329.14a3.06,3.06,0,0,1-1.88-.52,3.19,3.19,0,0,1-1-1.08l-8.5-15.18v14.9A1.9,1.9,0,0,1,315.91,69h-13.3a1.88,1.88,0,0,1-1.88-1.88v-45a1.88,1.88,0,0,1,1.88-1.88h13.3a1.9,1.9,0,0,1,1.88,1.88V35.87l7.87-14.14a2.93,2.93,0,0,1,2.79-1.53h15.39m0-3.69H328.45a6.62,6.62,0,0,0-6,3.45l-1,1.73a5.59,5.59,0,0,0-5.55-5.18h-13.3A5.6,5.6,0,0,0,297,22.08v45a5.58,5.58,0,0,0,5.57,5.57h13.3a5.6,5.6,0,0,0,5.57-5.57V66.3L323,69.1a7,7,0,0,0,2,2.28,6.63,6.63,0,0,0,4.08,1.26H345a5.22,5.22,0,0,0,5.21-5.22,5,5,0,0,0-.78-2.75L336.92,43.53l11.41-19.15a5.22,5.22,0,0,0-4.49-7.87Z"/><path class="cls-8" d="M329.14,66.19l-.28,0-.13-.11L316.41,44l11.67-21,.06-.09h0a2.66,2.66,0,0,1,.31,0h13.22L329.41,43.53l13.45,22.66Zm-25.65,0V23H315V66.19Z"/><path class="cls-9" d="M342.86,66.19c-1.26-1.63-4-4.5-5.07-6.23s-2.11-3.49-3.12-5.26-1.94-3.58-2.83-5.42-1.74-3.7-2.46-5.63a61.37,61.37,0,0,1,3.48,5.06C334,50.43,335,52.2,336,54s1.94,3.58,2.83,5.42S342.14,64.26,342.86,66.19Z"/><path class="cls-9" d="M329.38,43.65c.86-1.87,1.61-4.81,2.64-6.57s1.8-3.25,2.91-5,1.67-2.74,2.89-4.38A60.2,60.2,0,0,1,341.68,23c-.87,1.87-1.85,3.66-2.88,5.43s-2.12,3.48-3.24,5.19-1.88,3.19-3.1,4.83S330.76,42.12,329.38,43.65Z"/><path class="cls-9" d="M303.25,23c.91-.08,1.61-.13,2.54-.18l2.82-.13c1.87.11,3.54,0,5.45,0l1,.27v.45c.1,3.75-.1,7.06-.07,10.81s0,7.49,0,11.24c-.07,7.49.29,13.24-.18,20.73-.46-7.49-1.19-13.24-1.26-20.73q0-5.62,0-11.24T313.71,23l.53.52c-1.88-.06-3.75-.11-5.63-.2"/><path class="cls-7" d="M376.88,71.14c-7.35,0-13.3-1.73-17.68-5.16s-6.8-8.83-6.8-15.76V21.73A3.76,3.76,0,0,1,356.13,18h13.65a3.76,3.76,0,0,1,3.72,3.73V49.94a3.89,3.89,0,0,0,.78,2.73,4.45,4.45,0,0,0,5.06,0,3.89,3.89,0,0,0,.79-2.73V21.73A3.74,3.74,0,0,1,383.85,18H397.5a3.74,3.74,0,0,1,3.72,3.73V50.22c0,6.92-2.27,12.23-6.76,15.76S384.19,71.14,376.88,71.14Z"/><path class="cls-4" d="M397.5,19.85a1.9,1.9,0,0,1,1.88,1.88V50.22q0,9.54-6.06,14.31T376.88,69.3q-10.44,0-16.54-4.77t-6.09-14.31V21.73a1.84,1.84,0,0,1,.55-1.33,1.8,1.8,0,0,1,1.33-.55h13.65a1.8,1.8,0,0,1,1.32.55,1.85,1.85,0,0,1,.56,1.33V49.94a5.59,5.59,0,0,0,1.29,4,6.17,6.17,0,0,0,7.73,0,5.59,5.59,0,0,0,1.29-4V21.73a1.9,1.9,0,0,1,1.88-1.88H397.5m0-3.69H383.85a5.6,5.6,0,0,0-5.57,5.57V49.94a2.71,2.71,0,0,1-.27,1.47,2.27,2.27,0,0,1-1.2.21,2.21,2.21,0,0,1-1.19-.21,2.67,2.67,0,0,1-.28-1.47V21.73a5.58,5.58,0,0,0-5.56-5.57H356.13a5.58,5.58,0,0,0-5.57,5.57V50.22c0,7.52,2.53,13.31,7.51,17.21,4.71,3.69,11,5.56,18.81,5.56s14-1.87,18.72-5.56c5-3.9,7.47-9.69,7.47-17.21V21.73a5.6,5.6,0,0,0-5.57-5.57Z"/><path class="cls-8" d="M376.88,66.54c-6.3,0-11.29-1.41-14.83-4.19s-5-6.62-5-12.13V22.61h11.88V49.94a8.28,8.28,0,0,0,2.05,5.91,8.87,8.87,0,0,0,11.74,0,8.28,8.28,0,0,0,2.05-5.91V22.61h11.89V50.22c0,5.52-1.64,9.49-5,12.14C388.09,65.13,383.14,66.54,376.88,66.54Z"/><path class="cls-9" d="M382.64,55.9a8.87,8.87,0,0,1-11.74,0,8.26,8.26,0,0,1-2-5.91V36.79a81.15,81.15,0,0,0-1.06,11.38V50a9.19,9.19,0,0,0,2.53,6.82,8,8,0,0,0,7.49,2.35C382.54,58,382.64,55.9,382.64,55.9Z"/><path class="cls-9" d="M376.88,66.54c6.26,0,11.21-1.41,14.73-4.18,3.37-2.65,5-6.62,5-12.14C396.62,50.22,395.38,66,376.88,66.54Z"/><polygon class="cls-9" points="357.69 22.61 368.99 22.26 368.92 31.74 367.43 23.65 357.69 22.61"/><polygon class="cls-9" points="385.42 22.61 396.72 22.26 396.62 31.74 395.16 23.65 385.42 22.61"/><path class="cls-1" d="M49.62,42,33.34,29.62a5.31,5.31,0,0,0-6.42,0L10.64,42A5.34,5.34,0,0,0,9.26,43.6l.48-.36L17.88,37,26,30.84a6.77,6.77,0,0,1,8.22,0L42.38,37l6.74,5.13,1.4,1.07.48.35A5.43,5.43,0,0,0,49.62,42Z"/><path class="cls-10" d="M49.12,42.17,42.38,37l-8.14-6.2a6.77,6.77,0,0,0-8.22,0L17.88,37l-8.14,6.2-.48.36a5.32,5.32,0,0,0-.71,2.64,5.27,5.27,0,0,0,2.09,4.21l16.28,12.4a5.31,5.31,0,0,0,6.42,0l16.28-12.4A5.29,5.29,0,0,0,51,43.59l-.48-.35Z"/><path class="cls-11" d="M30.13,85.11V64.88L51.37,49.34,53.18,46v20a7.33,7.33,0,0,1-2.67,5.4L34.24,83.72S33.1,85,30.13,85.11Z"/><path class="cls-12" d="M30.13,85.11V64.88L8.9,49.34,7.08,46v20a7.38,7.38,0,0,0,2.67,5.4L26,83.72S27.16,85,30.13,85.11Z"/><path class="cls-13" d="M30.13,63.92a6,6,0,0,1-3.66-1.24L10.19,50.29a6.05,6.05,0,0,1,0-9.62l16.28-12.4a6.06,6.06,0,0,1,7.32,0l16.28,12.4a6.05,6.05,0,0,1,0,9.62L33.79,62.68A6,6,0,0,1,30.13,63.92Z"/><g class="cls-14"><path class="cls-15" d="M30.13,61.6a3.71,3.71,0,0,1-2.26-.76L11.6,48.44a3.73,3.73,0,0,1,0-5.93l16.27-12.4a3.71,3.71,0,0,1,2.26-.76,3.67,3.67,0,0,1,2.26.76l16.28,12.4a3.73,3.73,0,0,1,0,5.93L32.39,60.84A3.67,3.67,0,0,1,30.13,61.6Z"/></g><path class="cls-16" d="M34.72,39.29c0,4.46-9.17,4.46-9.17,0V12.44h9.17Z"/><path class="cls-17" d="M50.52,40.3,34.24,27.9a6.81,6.81,0,0,0-8.22,0L9.74,40.3a6.8,6.8,0,0,0,0,10.8L26,63.5a6.81,6.81,0,0,0,8.22,0L50.52,51.1a6.8,6.8,0,0,0,0-10.8Zm-.9,9.62L33.34,62.31a5.27,5.27,0,0,1-6.42,0L10.64,49.92a5.29,5.29,0,0,1-1.38-6.86,5.46,5.46,0,0,1,1.38-1.58L26.92,29.09a5.27,5.27,0,0,1,6.42,0L49.62,41.48A5.46,5.46,0,0,1,51,43.06a5.29,5.29,0,0,1-1.38,6.86Z"/><ellipse class="cls-18" cx="36.18" cy="47.89" rx="3.64" ry="3.26"/><g class="cls-19"><path class="cls-20" d="M36.18,49.84a2,2,0,1,1,2.33-2A2.17,2.17,0,0,1,36.18,49.84Z"/></g><g class="cls-19"><path class="cls-21" d="M33.85,47.89a1.71,1.71,0,0,1,.34-1.24,2.29,2.29,0,0,1,1.09-.8,2.78,2.78,0,0,1,2.65.37,2.15,2.15,0,0,1,.8,1.19,1.85,1.85,0,0,1-.23,1.4,2.31,2.31,0,0,1-2.32,1,2.48,2.48,0,0,0,1.91-1.25,1.52,1.52,0,0,0-.53-1.89,2.52,2.52,0,0,0-2.14-.4A2,2,0,0,0,33.85,47.89Z"/></g><ellipse class="cls-18" cx="30.13" cy="55.49" rx="3.64" ry="3.26"/><g class="cls-19"><path class="cls-20" d="M30.13,57.44a2,2,0,1,1,0-3.9,2,2,0,1,1,0,3.9Z"/></g><g class="cls-19"><path class="cls-21" d="M27.81,55.49a1.67,1.67,0,0,1,.33-1.25,2.43,2.43,0,0,1,1.09-.8,2.8,2.8,0,0,1,2.66.37A2.23,2.23,0,0,1,32.68,55a1.87,1.87,0,0,1-.22,1.41,2.35,2.35,0,0,1-2.33,1A2.5,2.5,0,0,0,32,56.18a1.53,1.53,0,0,0-.52-1.89,2.52,2.52,0,0,0-2.14-.4A2,2,0,0,0,27.81,55.49Z"/></g><ellipse class="cls-18" cx="24.08" cy="47.89" rx="3.64" ry="3.26"/><g class="cls-19"><path class="cls-20" d="M24.08,49.84a2,2,0,1,1,0-3.9,2,2,0,1,1,0,3.9Z"/></g><g class="cls-19"><path class="cls-21" d="M21.76,47.89a1.7,1.7,0,0,1,.61-1.62,2.65,2.65,0,0,1,3.43,0,1.7,1.7,0,0,1,.61,1.62,2,2,0,0,0-.9-1.24,2.6,2.6,0,0,0-1.43-.4,2.57,2.57,0,0,0-1.42.4A2,2,0,0,0,21.76,47.89Z"/></g><path class="cls-22" d="M27.59,31h5.08a0,0,0,0,1,0,0v7A1.69,1.69,0,0,1,31,39.65h-1.7A1.69,1.69,0,0,1,27.59,38V31A0,0,0,0,1,27.59,31Z"/><circle class="cls-23" cx="30.13" cy="18.12" r="14.71"/><path class="cls-13" d="M30.13,4A14.08,14.08,0,1,1,16.05,18.12,14.08,14.08,0,0,1,30.13,4m0-1.26A15.35,15.35,0,1,0,45.48,18.12,15.36,15.36,0,0,0,30.13,2.78Z"/><g class="cls-19"><circle class="cls-24" cx="34.24" cy="15.35" r="5.64" transform="translate(-0.83 28.71) rotate(-45)"/></g><path class="cls-25" d="M30.13,4c-.28,0-.55,0-.82,0a14.06,14.06,0,0,1,0,28.07c.27,0,.54,0,.82,0A14.08,14.08,0,0,0,30.13,4Z"/><g class="cls-26"><path class="cls-27" d="M40.64,36.39s7.41,6.46,8,7.21a3.11,3.11,0,0,1,.2,3.3c-.56.85-8.22,7.66-8.22,7.66l9.15-6.22L51,44.63,46.55,40Z"/></g></g></g></svg>