<svg xmlns="http://www.w3.org/2000/svg" xmlns:xlink="http://www.w3.org/1999/xlink" width="47" height="43" viewBox="0 0 47 43" fill="none"><g opacity="1"  transform="translate(0 0)  rotate(0)"><path id="路径 1" fill-rule="evenodd" style="fill:#008C75" opacity="1" d="M42 39L42.9963 42.9964L47.0732 38.9952L42 39Z"></path><g opacity="1"  transform="translate(0 0)  rotate(0)"><g opacity="1"  transform="translate(0 0)  rotate(0)"><g id="矩形 2" filter="url(#filter_4)"><path id="矩形 2" fill-rule="evenodd" fill="url(#linear_0)" opacity="1" d="M8 43L43 43C43 43 41 30.14 41 21.5C41 16.8 41.59 10.84 42.13 6.39C42.53 3.19 39.81 0.47 36.61 0.87C32.16 1.41 26.2 2 21.5 2C12.86 2 0 0 0 0L0 35C0 39.42 3.58 43 8 43Z"></path></g><path id="文本 1" fill-rule="evenodd" style="fill:#FFFFFF" opacity="1" d="M9,15h2.84v5.62h6.18v-5.62h2.86v13.95h-2.86v-5.81h-6.18v5.81h-2.84zM33.55,17.38h-7.5v3.24h5.58c0.82,0 1.4,0.64 1.4,0.64c0.58,0.67 0.58,1.59 0.58,1.59v3.83c0,0.94 -0.58,1.6 -0.58,1.6c-0.61,0.67 -1.4,0.67 -1.4,0.67h-8.3v-2.38h7.49v-3.61h-7.58v-7.96h10.31z"></path></g></g></g><defs><linearGradient id="linear_0" x1="0%" y1="0%" x2="100%" y2="100%" gradientUnits="objectBoundingBox"><stop offset="0" stop-color="#17FFD8" stop-opacity="1" /><stop offset="1" stop-color="#00AEDE" stop-opacity="1" /></linearGradient><filter id="filter_4" x="-3" y="-3" width="49" height="49" filterUnits="userSpaceOnUse" color-interpolation-filters="sRGB"><feFlood flood-opacity="0" result="feFloodId"/>
          <feColorMatrix in="SourceAlpha" type="matrix" values="0 0 0 0 0 0 0 0 0 0 0 0 0 0 0 0 0 0 127 0" result="hardAlpha"/>
          
          <feOffset dx="0" dy="0"/>
          <feComposite in2="hardAlpha" operator="out"/>
          <feGaussianBlur stdDeviation="1.5"/>
          <feColorMatrix type="matrix" values="0 0 0 0 0 0 0 0 0 0 0 0 0 0 0 0 0 0 0.15 0"/>
          <feBlend mode="normal" in2="filter_feFlood" result="filter_feFlood_1"/>
          <feBlend mode="normal" in="SourceGraphic" in2="filter_4" result="shape"/></filter></defs></svg>