<svg id="图层_1" data-name="图层 1" xmlns="http://www.w3.org/2000/svg" width="200" height="200" viewBox="0 0 200 200"><defs><style>.cls-1{fill:#e8e8e8;}.cls-2{fill:#373d59;}.cls-3{fill:#ddd;}.cls-4{fill:#474747;}.cls-5{fill:#232323;}.cls-6{fill:#e04c4c;}.cls-7{fill:#e0a35a;}.cls-8{fill:#fff;}.cls-9{fill:#ffbc00;}.cls-10{fill:#ff0;}.cls-11{fill:#53abdb;}.cls-12{fill:#3f3f3f;}</style></defs><title>加载</title><path class="cls-1" d="M99.9,20.4a2.5,2.5,0,0,0-2.2,1.1,5,5,0,0,0-.9,3.3,5,5,0,0,0,.9,3.1A2.5,2.5,0,0,0,99.9,29a2.8,2.8,0,0,0,2.7-1.7V22A2.9,2.9,0,0,0,99.9,20.4Z"/><path class="cls-1" d="M0,0V120.2A128.4,128.4,0,0,1,80,74a89,89,0,0,1,4.1-9.9h0A107.6,107.6,0,0,1,100,39.8a107.6,107.6,0,0,1,15.9,24.3h0A89,89,0,0,1,120,74a128.4,128.4,0,0,1,80,46.2V0ZM67.9,30.4h-2V14.1h2ZM81,24.8a7.3,7.3,0,0,1-.6,3,5.5,5.5,0,0,1-1.9,2.1,5,5,0,0,1-2.7.8A4.7,4.7,0,0,1,72,29a6.1,6.1,0,0,1-1.5-4.3h0a6.2,6.2,0,0,1,.7-3.1A4.6,4.6,0,0,1,73,19.4a6.1,6.1,0,0,1,2.8-.7,5.3,5.3,0,0,1,3.8,1.6A6.8,6.8,0,0,1,81,24.7Zm11.7,5.6H90.6a5,5,0,0,1-.3-1.2A4.3,4.3,0,0,1,87,30.7a4.5,4.5,0,0,1-2.8-1,3.1,3.1,0,0,1-1-2.4,3.2,3.2,0,0,1,1.3-2.8,6.3,6.3,0,0,1,3.9-1h1.9v-.9a2.4,2.4,0,0,0-.6-1.7,2.4,2.4,0,0,0-1.8-.6,3.5,3.5,0,0,0-1.8.5,1.6,1.6,0,0,0-.7,1.3h-2a2.9,2.9,0,0,1,.6-1.7,4.3,4.3,0,0,1,1.7-1.2,5.6,5.6,0,0,1,2.3-.5,4.5,4.5,0,0,1,3.1,1,4.2,4.2,0,0,1,1.2,2.7v5.4a6,6,0,0,0,.4,2.5Zm11.9,0h-1.8V29.2a4,4,0,0,1-3.3,1.5A4.2,4.2,0,0,1,96.1,29a7.1,7.1,0,0,1-1.2-4.3h0a7.1,7.1,0,0,1,1.2-4.3,4.1,4.1,0,0,1,3.3-1.6,4,4,0,0,1,3.2,1.4v-6h2Zm5.2,0h-2V18.9h2Zm-.1-13.7a1.2,1.2,0,0,1-.9.3,1,1,0,0,1-.8-.3,1.3,1.3,0,0,1-.3-.8,1,1,0,0,1,.3-.8.8.8,0,0,1,.8-.4,1.2,1.2,0,0,1,1.2,1.2A1.3,1.3,0,0,1,109.7,16.7ZM122,30.4h-1.9V22.8a3,3,0,0,0-.6-1.8,2.4,2.4,0,0,0-1.8-.6,2.8,2.8,0,0,0-1.6.5,3.7,3.7,0,0,0-1.2,1.3v8.2H113V18.9h1.8v1.5a4.2,4.2,0,0,1,3.4-1.7c2.5,0,3.7,1.4,3.7,4.1Zm12.3-.2a4.7,4.7,0,0,1-1.4,3.5,4.5,4.5,0,0,1-3.5,1.3,7,7,0,0,1-2.5-.5,4.5,4.5,0,0,1-1.8-1.5l1-1.2a3.8,3.8,0,0,0,3.1,1.6,3.4,3.4,0,0,0,2.3-.8,3.4,3.4,0,0,0,.8-2.3v-1a4.2,4.2,0,0,1-3.2,1.4,3.9,3.9,0,0,1-3.3-1.7,6.6,6.6,0,0,1-1.3-4.4,6.5,6.5,0,0,1,1.3-4.3,3.8,3.8,0,0,1,3.3-1.6,4,4,0,0,1,3.3,1.5V18.9h1.8Zm5.1,0a1.2,1.2,0,0,1-1.8,0,1.2,1.2,0,0,1,0-1.6,1.2,1.2,0,0,1,1.8,0,1.2,1.2,0,0,1,0,1.6Zm5.8,0a1.2,1.2,0,0,1-1,.4,1,1,0,0,1-.9-.4,1.2,1.2,0,0,1,0-1.6,1,1,0,0,1,.9-.4,1.2,1.2,0,0,1,1,.4,1.2,1.2,0,0,1,0,1.6Zm5.7,0a1.2,1.2,0,0,1-1.8,0,1.2,1.2,0,0,1,0-1.6,1.2,1.2,0,0,1,1.8,0,1.2,1.2,0,0,1,0,1.6Z"/><path class="cls-1" d="M75.8,20.3a2.9,2.9,0,0,0-2.4,1.2,5.4,5.4,0,0,0-.9,3.3,5,5,0,0,0,.9,3.1,3,3,0,0,0,4.8,0,6.2,6.2,0,0,0,.8-3.3,5,5,0,0,0-.9-3.1A2.8,2.8,0,0,0,75.8,20.3Z"/><path class="cls-1" d="M85.1,27a1.7,1.7,0,0,0,.6,1.4,2.4,2.4,0,0,0,1.6.5,3.7,3.7,0,0,0,1.8-.4,4.9,4.9,0,0,0,1.2-1.3V24.9H88.7Q85.1,24.9,85.1,27Z"/><path class="cls-1" d="M129.6,20.4a2.8,2.8,0,0,0-2.3,1.1,5.7,5.7,0,0,0-.8,3.3,5.7,5.7,0,0,0,.8,3.1,2.7,2.7,0,0,0,2.2,1.1,3,3,0,0,0,2.8-1.7V22A2.9,2.9,0,0,0,129.6,20.4Z"/><path class="cls-2" d="M120,74a74.6,74.6,0,0,1,4.6,25.5,137.6,137.6,0,0,1-1,17.3l1.3.7a18.7,18.7,0,0,1,6.8,25.5,17.9,17.9,0,0,1-5.9,6.3,18.6,18.6,0,0,0-5.9-14.7,60.4,60.4,0,0,1-7.5,16.5h-.5l-.7,3.2h-1l-.7,1.9h-19l-.7-1.9h-1l-.7-3.2h-.5a60.4,60.4,0,0,1-7.5-16.5,18.6,18.6,0,0,0-5.9,14.7,17.9,17.9,0,0,1-5.9-6.3,18.7,18.7,0,0,1,6.8-25.5l1.3-.7a137.6,137.6,0,0,1-1-17.3A74.6,74.6,0,0,1,80,74,128.4,128.4,0,0,0,0,120.2V200H16.5a18.6,18.6,0,0,1-1.6-7.4,17.9,17.9,0,0,1,17.9-17.9,19.1,19.1,0,0,1,5.4.8,17.8,17.8,0,0,1,17.3-13.4,17.4,17.4,0,0,1,11.3,4.1,17.7,17.7,0,0,1,11.4-4.1,17.4,17.4,0,0,1,11.3,4.1l1.5-1.1a15.3,15.3,0,0,1,4.3-8.9h9.4a14.6,14.6,0,0,1,4.1,7.8,17.9,17.9,0,0,1,3.4,2.2,17.4,17.4,0,0,1,11.3-4.1,17.7,17.7,0,0,1,11.4,4.1,17.4,17.4,0,0,1,11.3-4.1,17.8,17.8,0,0,1,17.3,13.4,19.1,19.1,0,0,1,5.4-.8,17.9,17.9,0,0,1,17.9,17.9,18.6,18.6,0,0,1-1.6,7.4H200V120.2A128.4,128.4,0,0,0,120,74ZM19.7,158.9a2.7,2.7,0,1,1,2.7-2.7A2.7,2.7,0,0,1,19.7,158.9Zm14.1-1a5.6,5.6,0,1,1,5.6-5.5A5.5,5.5,0,0,1,33.8,157.9Zm132.4,0a5.6,5.6,0,1,1,5.5-5.5A5.6,5.6,0,0,1,166.2,157.9Zm14.1,1a2.7,2.7,0,1,1,2.7-2.7A2.7,2.7,0,0,1,180.3,158.9Z"/><path class="cls-3" d="M90.8,167.3a15,15,0,0,1,.2-2.2l-1.5,1.1a17.4,17.4,0,0,0-11.3-4.1,17.7,17.7,0,0,0-11.4,4.1,17.4,17.4,0,0,0-11.3-4.1,17.8,17.8,0,0,0-17.3,13.4,17.2,17.2,0,0,0,.6,10.8,16.9,16.9,0,0,1,5.3-7.5,17.7,17.7,0,0,1,11.4-4.1,19.1,19.1,0,0,1,5.4.8,16.3,16.3,0,0,1,5.9,3.3,17.7,17.7,0,0,1,6-3.3,18.3,18.3,0,0,1,10.7,0,16.8,16.8,0,0,1,6,3.3,18.3,18.3,0,0,1,4.2-2.6,13,13,0,0,1-3-7.8C90.7,168,90.8,167.7,90.8,167.3Z"/><path class="cls-3" d="M146.2,162.1a17.4,17.4,0,0,0-11.3,4.1,17.7,17.7,0,0,0-11.4-4.1,17.4,17.4,0,0,0-11.3,4.1,17.9,17.9,0,0,0-3.4-2.2,20.4,20.4,0,0,1,.5,4.4c0,.3-.1.6-.1.9a13.7,13.7,0,0,1-2.5,6.4,16.6,16.6,0,0,1,5.5,3.1,16.3,16.3,0,0,1,5.9-3.3,19.6,19.6,0,0,1,5.4-.8,19.1,19.1,0,0,1,5.4.8,17.7,17.7,0,0,1,6,3.3,16.3,16.3,0,0,1,5.9-3.3,19.1,19.1,0,0,1,5.4-.8,17.7,17.7,0,0,1,11.4,4.1,16.3,16.3,0,0,1,5.9-3.3A17.8,17.8,0,0,0,146.2,162.1Z"/><polygon class="cls-4" points="90.5 156.2 109.5 156.2 110.2 154.3 89.8 154.3 90.5 156.2"/><polygon class="cls-5" points="88.8 154.3 89.8 154.3 89 152.4 111 152.4 110.2 154.3 111.2 154.3 111.9 151.1 88.1 151.1 88.8 154.3"/><polygon class="cls-5" points="89 152.4 89.8 154.3 110.2 154.3 111 152.4 89 152.4"/><path class="cls-6" d="M100,39.8A107.6,107.6,0,0,0,84.1,64.1h31.8A107.6,107.6,0,0,0,100,39.8Z"/><path class="cls-7" d="M75.1,117.5A18.7,18.7,0,0,0,68.3,143a17.9,17.9,0,0,0,5.9,6.3,18.6,18.6,0,0,1,5.9-14.7,109.4,109.4,0,0,1-3.7-17.8Z"/><path class="cls-7" d="M125.8,149.3a17.9,17.9,0,0,0,5.9-6.3,18.7,18.7,0,0,0-6.8-25.5l-1.3-.7a109.4,109.4,0,0,1-3.7,17.8A18.6,18.6,0,0,1,125.8,149.3Z"/><path class="cls-8" d="M168.9,174.7a19.1,19.1,0,0,0-5.4.8,16.3,16.3,0,0,0-5.9,3.3,17.7,17.7,0,0,0-11.4-4.1,19.1,19.1,0,0,0-5.4.8,16.3,16.3,0,0,0-5.9,3.3,17.7,17.7,0,0,0-6-3.3,19.1,19.1,0,0,0-5.4-.8,19.6,19.6,0,0,0-5.4.8,16.3,16.3,0,0,0-5.9,3.3,16.6,16.6,0,0,0-5.5-3.1l-.7,1h0a28.6,28.6,0,0,1-6,5.7,31.5,31.5,0,0,1-4-3.4c-.7-.7-1.3-1.5-2-2.3l-.3-.5a18.3,18.3,0,0,0-4.2,2.6,16.8,16.8,0,0,0-6-3.3,18.3,18.3,0,0,0-10.7,0,17.7,17.7,0,0,0-6,3.3,16.3,16.3,0,0,0-5.9-3.3,19.1,19.1,0,0,0-5.4-.8,17.7,17.7,0,0,0-11.4,4.1,16.9,16.9,0,0,0-5.3,7.5,17.2,17.2,0,0,1-.6-10.8,19.1,19.1,0,0,0-5.4-.8,17.9,17.9,0,0,0-17.9,17.9,18.6,18.6,0,0,0,1.6,7.4H185.2a18.6,18.6,0,0,0,1.6-7.4A17.9,17.9,0,0,0,168.9,174.7Z"/><circle class="cls-8" cx="166.2" cy="152.4" r="5.6" transform="translate(-59.1 162.1) rotate(-45)"/><path class="cls-8" d="M180.3,158.9a2.7,2.7,0,1,0-2.7-2.7A2.7,2.7,0,0,0,180.3,158.9Z"/><circle class="cls-8" cx="33.8" cy="152.4" r="5.6" transform="translate(-34.1 11.9) rotate(-13.3)"/><path class="cls-8" d="M19.7,158.9a2.7,2.7,0,1,0-2.7-2.7A2.7,2.7,0,0,0,19.7,158.9Z"/><path class="cls-8" d="M80.1,134.6a60.4,60.4,0,0,0,7.5,16.5h24.8a60.4,60.4,0,0,0,7.5-16.5,109.4,109.4,0,0,0,3.7-17.8,137.6,137.6,0,0,0,1-17.3A74.6,74.6,0,0,0,120,74a89,89,0,0,0-4.1-9.9H84.1A89,89,0,0,0,80,74a74.6,74.6,0,0,0-4.6,25.5,137.6,137.6,0,0,0,1,17.3A109.4,109.4,0,0,0,80.1,134.6ZM100,97.1a9.3,9.3,0,1,1,9.3-9.2A9.3,9.3,0,0,1,100,97.1Zm1.2,19.8v32.4H98.8V116.9Z"/><path class="cls-9" d="M97.1,156.2H95.3a15.3,15.3,0,0,0-4.3,8.9,21.1,21.1,0,0,1,3.3-1.8A10.3,10.3,0,0,1,97.1,156.2Z"/><path class="cls-9" d="M108.8,164a14.6,14.6,0,0,0-4.1-7.8h-1.8a10,10,0,0,1,2.7,6.6A17.5,17.5,0,0,1,108.8,164Z"/><path class="cls-9" d="M95.5,175.5a18.3,18.3,0,0,1,10.7,0,17,17,0,0,1,3-6.2c0-.3.1-.6.1-.9a20.4,20.4,0,0,0-.5-4.4,17.5,17.5,0,0,0-3.2-1.2c0,.3.1.5.1.8a8.5,8.5,0,0,1-2,5.1,16.9,16.9,0,0,1-3.7,3.5,16.9,16.9,0,0,1-3.7-3.5,8.5,8.5,0,0,1-2-5.1v-.3a21.1,21.1,0,0,0-3.3,1.8,15,15,0,0,0-.2,2.2A18.2,18.2,0,0,1,95.5,175.5Z"/><path class="cls-9" d="M90.8,167.3c0,.4-.1.7-.1,1.1a13,13,0,0,0,3,7.8l1.8-.7A18.2,18.2,0,0,0,90.8,167.3Z"/><path class="cls-9" d="M109.2,169.3a17,17,0,0,0-3,6.2l.5.2A13.7,13.7,0,0,0,109.2,169.3Z"/><path class="cls-9" d="M100,182.4a28.6,28.6,0,0,0,6-5.7,5,5,0,0,1,.2-1.2,18.3,18.3,0,0,0-10.7,0c.2,1.1.4,2.3.5,3.5A31.5,31.5,0,0,0,100,182.4Z"/><path class="cls-9" d="M96,179c-.1-1.2-.3-2.4-.5-3.5l-1.8.7.3.5C94.7,177.5,95.3,178.3,96,179Z"/><path class="cls-9" d="M106,176.7l.7-1-.5-.2a5,5,0,0,0-.2,1.2Z"/><path class="cls-10" d="M100.8,162.1a15.1,15.1,0,0,1,4.8.7,10,10,0,0,0-2.7-6.6H97.1a10.3,10.3,0,0,0-2.8,7.1A17.8,17.8,0,0,1,100.8,162.1Z"/><path class="cls-10" d="M94.3,163.3v.3a8.5,8.5,0,0,0,2,5.1,16.9,16.9,0,0,0,3.7,3.5,16.9,16.9,0,0,0,3.7-3.5,8.5,8.5,0,0,0,2-5.1c0-.3-.1-.5-.1-.8a15.1,15.1,0,0,0-4.8-.7A17.8,17.8,0,0,0,94.3,163.3Z"/><path class="cls-11" d="M100,98.3a10.4,10.4,0,1,1,10.4-10.4A10.5,10.5,0,0,1,100,98.3Z"/><path class="cls-4" d="M100,78.6a9.3,9.3,0,1,1-9.3,9.3,9.3,9.3,0,0,1,9.3-9.3m0-2.2a11.5,11.5,0,1,0,11.5,11.5A11.5,11.5,0,0,0,100,76.4Z"/><rect class="cls-7" x="98.8" y="116.9" width="2.3" height="32.36"/><rect class="cls-12" x="65.9" y="14.1" width="2" height="16.37"/><path class="cls-12" d="M75.8,30.7a5,5,0,0,0,2.7-.8,5.5,5.5,0,0,0,1.9-2.1,7.3,7.3,0,0,0,.6-3h0a6.8,6.8,0,0,0-1.4-4.4,5.3,5.3,0,0,0-3.8-1.6,6.1,6.1,0,0,0-2.8.7,4.6,4.6,0,0,0-1.8,2.1,6.2,6.2,0,0,0-.7,3.1h0A6.1,6.1,0,0,0,72,29,4.7,4.7,0,0,0,75.8,30.7Zm-2.4-9.2a2.9,2.9,0,0,1,2.4-1.2,2.8,2.8,0,0,1,2.3,1.2,5,5,0,0,1,.9,3.1,6.2,6.2,0,0,1-.8,3.3,3,3,0,0,1-4.8,0,5,5,0,0,1-.9-3.1A5.4,5.4,0,0,1,73.4,21.5Z"/><path class="cls-12" d="M88.4,23.5a6.3,6.3,0,0,0-3.9,1,3.2,3.2,0,0,0-1.3,2.8,3.1,3.1,0,0,0,1,2.4,4.5,4.5,0,0,0,2.8,1,4.3,4.3,0,0,0,3.3-1.5,5,5,0,0,0,.3,1.2h2.1a6,6,0,0,1-.4-2.5V22.4a4.2,4.2,0,0,0-1.2-2.7,4.5,4.5,0,0,0-3.1-1,5.6,5.6,0,0,0-2.3.5A4.3,4.3,0,0,0,84,20.4a2.9,2.9,0,0,0-.6,1.7h2a1.6,1.6,0,0,1,.7-1.3,3.5,3.5,0,0,1,1.8-.5,2.4,2.4,0,0,1,1.8.6,2.4,2.4,0,0,1,.6,1.7v.9Zm1.9,3.7a4.9,4.9,0,0,1-1.2,1.3,3.7,3.7,0,0,1-1.8.4,2.4,2.4,0,0,1-1.6-.5,1.7,1.7,0,0,1-.6-1.4q0-2.1,3.6-2.1h1.6Z"/><path class="cls-12" d="M99.4,30.7a4,4,0,0,0,3.3-1.5v1.2h1.8V14.1h-2v6a4,4,0,0,0-3.2-1.4,4.1,4.1,0,0,0-3.3,1.6,7.1,7.1,0,0,0-1.2,4.3h0A7.1,7.1,0,0,0,96.1,29,4.2,4.2,0,0,0,99.4,30.7Zm-1.7-9.2a2.5,2.5,0,0,1,2.2-1.1,2.9,2.9,0,0,1,2.7,1.6v5.3A2.8,2.8,0,0,1,99.9,29a2.5,2.5,0,0,1-2.2-1.1,5,5,0,0,1-.9-3.1A5,5,0,0,1,97.7,21.5Z"/><rect class="cls-12" x="107.8" y="18.9" width="2" height="11.53"/><path class="cls-12" d="M108.8,17a1.2,1.2,0,0,0,.9-.3,1.3,1.3,0,0,0,.3-.8,1.2,1.2,0,0,0-1.2-1.2.8.8,0,0,0-.8.4,1,1,0,0,0-.3.8,1.3,1.3,0,0,0,.3.8A1,1,0,0,0,108.8,17Z"/><path class="cls-12" d="M114.9,22.2a3.7,3.7,0,0,1,1.2-1.3,2.8,2.8,0,0,1,1.6-.5,2.4,2.4,0,0,1,1.8.6,3,3,0,0,1,.6,1.8v7.6H122V22.8c0-2.7-1.2-4.1-3.7-4.1a4.2,4.2,0,0,0-3.4,1.7V18.9H113V30.4h1.9Z"/><path class="cls-12" d="M129.1,30.7a4.2,4.2,0,0,0,3.2-1.4v1a3.4,3.4,0,0,1-.8,2.3,3.4,3.4,0,0,1-2.3.8,3.8,3.8,0,0,1-3.1-1.6l-1,1.2a4.5,4.5,0,0,0,1.8,1.5,7,7,0,0,0,2.5.5,4.5,4.5,0,0,0,3.5-1.3,4.7,4.7,0,0,0,1.4-3.5V18.9h-1.8v1.3a4,4,0,0,0-3.3-1.5,3.8,3.8,0,0,0-3.3,1.6,6.5,6.5,0,0,0-1.3,4.3,6.6,6.6,0,0,0,1.3,4.4A3.9,3.9,0,0,0,129.1,30.7Zm-1.8-9.2a3,3,0,0,1,5,.5v5.3a3,3,0,0,1-2.8,1.7,2.7,2.7,0,0,1-2.2-1.1,5.7,5.7,0,0,1-.8-3.1A5.7,5.7,0,0,1,127.3,21.5Z"/><path class="cls-12" d="M138.5,30.6a1,1,0,0,0,.9-.4,1.2,1.2,0,0,0,0-1.6,1.2,1.2,0,0,0-1.8,0,1.2,1.2,0,0,0,0,1.6A1,1,0,0,0,138.5,30.6Z"/><path class="cls-12" d="M144.2,30.6a1.2,1.2,0,0,0,1-.4,1.2,1.2,0,0,0,0-1.6,1.2,1.2,0,0,0-1-.4,1,1,0,0,0-.9.4,1.2,1.2,0,0,0,0,1.6A1,1,0,0,0,144.2,30.6Z"/><path class="cls-12" d="M150,30.6a1,1,0,0,0,.9-.4,1.2,1.2,0,0,0,0-1.6,1.2,1.2,0,0,0-1.8,0,1.2,1.2,0,0,0,0,1.6A1,1,0,0,0,150,30.6Z"/></svg>